<?xml version="1.0" encoding="UTF-8"?>
<svg width="127px" height="31px" viewBox="0 0 127 31" version="1.1" xmlns="http://www.w3.org/2000/svg" xmlns:xlink="http://www.w3.org/1999/xlink">
    <!-- Generator: Sketch 61 (89581) - https://sketch.com -->
    <title>logo</title>
    <desc>Created with Sketch.</desc>
    <defs>
        <linearGradient x1="119.803583%" y1="-56.5215795%" x2="13.0508143%" y2="125.38169%" id="linearGradient-1">
            <stop stop-color="#FF527A" offset="34.98%"></stop>
            <stop stop-color="#FF6A84" offset="52.37%"></stop>
            <stop stop-color="#FF8590" offset="68.92%"></stop>
            <stop stop-color="#FF909D" offset="78.83%"></stop>
            <stop stop-color="#FF9CAB" offset="86.97%"></stop>
        </linearGradient>
        <linearGradient x1="27.2075136%" y1="6.21433415%" x2="72.5843532%" y2="81.5854511%" id="linearGradient-2">
            <stop stop-color="#008AFF" offset="0%"></stop>
            <stop stop-color="#1AC7FF" offset="73.57%"></stop>
            <stop stop-color="#3FDBFF" offset="100%"></stop>
        </linearGradient>
    </defs>
    <g id="页面-1" stroke="none" stroke-width="1" fill="none" fill-rule="evenodd">
        <g id="首页1" transform="translate(-101.000000, -20.000000)">
            <g id="top">
                <g id="logo" transform="translate(101.000000, 20.000000)">
                    <g id="编组">
                        <g fill-rule="nonzero">
                            <path d="M32.448,15.72 C32.016,18.432 30.912,20.712 29.304,22.44 C26.928,25.032 23.664,26.496 19.2,26.904 C20.616,27.648 22.464,28.056 24.768,28.056 C24.912,28.056 25.056,28.056 25.2,28.056 L27.576,30.048 C27.96,30.384 28.56,30.192 28.704,29.712 L29.376,27.336 C32.472,26.16 33.936,23.688 33.936,20.448 C33.912,18.576 33.432,16.968 32.448,15.72 Z" id="路径" fill="url(#linearGradient-1)"></path>
                            <path d="M15.6,0 C5.04,0 0.12,5.568 0.12,12.912 C0.12,18.12 2.592,22.44 7.824,24.504 L9.144,29.112 C9.312,29.688 10.032,29.904 10.488,29.52 L14.904,25.824 C15.144,25.824 15.384,25.824 15.624,25.824 C25.704,25.824 31.104,20.448 31.104,12.912 C31.08,5.568 26.16,0 15.6,0 Z" id="路径" fill="url(#linearGradient-2)"></path>
                            <g transform="translate(6.480000, 5.280000)" fill="#FFFFFF" id="路径">
                                <path d="M3.36,0.216 L3.36,0.216 C2.64,0.216 2.064,0.792 2.064,1.512 C2.064,2.232 2.64,2.808 3.36,2.808 L3.36,2.808 C4.08,2.808 4.656,2.232 4.656,1.512 C4.656,0.792 4.08,0.216 3.36,0.216 Z"></path>
                                <polygon points="12.408 9.936 15.888 9.936 15.888 8.52 12.408 8.52 12.408 7.392 10.608 7.392 10.608 8.52 7.104 8.52 7.104 9.936 10.608 9.936 10.608 11.664 6.6 11.664 6.6 13.08 10.608 13.08 10.608 15.624 12.408 15.624 12.408 13.08 16.416 13.08 16.416 11.664 12.408 11.664"></polygon>
                                <polygon points="0.144 6.624 2.472 6.624 2.472 13.08 4.272 13.08 4.272 6.624 4.272 5.376 4.272 5.208 0.144 5.208"></polygon>
                                <path d="M13.944,5.208 L12.6,3.864 L14.904,1.56 L14.904,0.24 L7.704,0.24 L7.704,1.656 L12.6,1.656 L9.048,5.208 L6.072,5.208 L6.072,6.624 L8.856,6.624 C9.48,6.624 10.08,6.384 10.512,5.928 L11.496,4.944 L12.48,5.928 C12.912,6.36 13.512,6.624 14.136,6.624 L16.92,6.624 L16.92,5.208 L13.944,5.208 L13.944,5.208 Z"></path>
                            </g>
                        </g>
                        <g transform="translate(41.520000, 3.840000)" fill="#232323" fill-rule="nonzero">
                            <g>
                                <path d="M45.672,14.712 L47.088,14.712 L47.088,13.56 L45.672,13.56 L45.672,14.712 Z M45.672,17.784 L47.088,17.784 L47.088,16.632 L45.672,16.632 L45.672,17.784 Z M53.304,11.04 L51.984,11.04 C51.48,11.04 51,10.68 50.808,10.152 L50.472,8.808 L49.584,8.808 L49.584,11.472 L53.208,11.472 L53.208,17.664 C53.16,19.272 52.512,20.112 51.336,20.16 L43.392,20.16 L43.392,11.472 L47.088,11.472 L47.088,8.808 L46.272,8.808 L45.84,9.984 C45.6,10.56 45.24,11.04 44.736,11.04 L43.272,11.04 L43.272,8.904 L43.872,8.904 C44.16,8.904 44.304,8.784 44.472,8.328 L44.736,7.656 L47.088,7.656 L47.088,7.152 L43.368,7.152 L43.368,5.256 L44.064,5.256 L44.064,4.44 L46.152,4.44 L46.152,5.256 L47.088,5.256 L47.088,3.48 L43.392,3.48 L43.392,1.2 L50.016,1.2 C50.304,1.2 50.52,1.128 50.52,0.864 L50.52,0.648 L53.016,0.672 L53.04,2.184 C53.04,3.384 52.032,3.432 51.12,3.504 L49.584,3.504 L49.584,5.28 L50.616,5.28 L50.616,4.392 L52.704,4.392 L52.704,5.28 L53.376,5.28 L53.376,7.272 L49.584,7.272 L49.584,7.704 L51.912,7.704 L52.128,8.64 C52.176,8.88 52.32,8.976 52.416,8.976 L53.328,8.976 M49.584,14.712 L50.928,14.712 L50.928,13.56 L49.584,13.56 L49.584,14.712 Z M49.584,16.632 L49.584,17.784 L50.616,17.784 C50.832,17.784 50.952,17.544 50.952,17.256 L50.952,16.632 L49.584,16.632 Z M57.864,17.736 C57.816,19.176 57.432,20.088 56.136,20.16 L53.712,20.16 L53.712,17.592 L54.864,17.592 C55.32,17.592 55.848,17.328 55.848,16.896 L55.848,12.96 L55.368,16.392 L53.784,16.824 L54.312,11.424 L55.872,11.424 L55.872,6 L55.44,9.816 L55.392,10.2 C55.392,10.2 54.312,10.632 53.784,10.632 L54.312,4.224 L55.752,4.224 L55.752,3.24 L53.784,3.24 L53.784,0.888 L57.888,0.888 L57.888,17.736 L57.864,17.736 Z M58.272,16.8 L58.896,11.448 L60.456,11.448 L60.504,6 L60.096,9.624 L60,10.224 L58.368,10.608 C58.464,9.624 58.92,4.2 58.92,4.2 L60.48,4.2 L60.48,3.216 L58.8,3.216 L58.8,0.864 L62.784,0.864 L62.784,17.544 C62.784,19.2 62.112,20.136 60.576,20.136 L58.536,20.136 L58.536,17.592 L59.568,17.592 C59.976,17.592 60.384,17.256 60.384,16.848 L60.384,13.032 L60,15.936 L59.904,16.44 L58.272,16.8 Z" id="形状"></path>
                                <path d="M66.864,9.312 L65.328,9.312 L65.328,7.152 L69.384,7.152 L69.384,17.184 C69.336,17.64 69.528,17.856 69.984,17.784 L71.16,17.784 L71.16,20.208 L68.256,20.208 C67.344,20.208 66.888,19.728 66.888,18.744 L66.888,9.312 L66.864,9.312 Z M65.496,0.672 L70.344,0.672 L70.344,3.192 L65.496,3.192 L65.496,0.672 Z M71.76,12.384 L76.824,12.384 L76.824,11.184 L79.344,11.184 L79.344,12.384 L84.528,12.384 L84.528,14.712 L79.344,14.712 L79.344,16.608 L84.528,16.608 L84.528,18.768 L79.344,18.768 L79.344,20.328 L76.8,20.328 L76.8,18.768 L71.664,18.768 L71.664,16.608 L76.8,16.608 L76.8,14.712 L71.76,14.712 L71.76,12.384 Z M71.76,3.072 L71.76,0.672 L84.504,0.672 L84.504,3.264 L80.472,7.344 L81.576,8.112 C81.864,8.4 82.368,8.544 83.112,8.544 L84.576,8.544 L84.576,10.872 L81.672,10.872 C80.976,10.872 80.352,10.68 79.8,10.272 L78.432,9.24 L77.4,10.008 C76.704,10.584 76.032,10.872 75.336,10.872 L71.832,10.872 L71.832,8.544 L74.232,8.544 C74.568,8.544 74.976,8.4 75.312,8.112 L76.104,7.512 L72.168,4.152 L76.08,4.152 L78.048,5.808 L80.808,3.072 L71.76,3.072 Z" id="形状"></path>
                                <path d="M54.24,11.04 L53.136,11.04 L53.136,8.904 L53.568,8.904 C53.736,8.904 53.88,8.784 53.904,8.616 L54,7.776 L55.368,8.904 L55.392,9.96 C55.368,10.752 54.84,11.04 54.24,11.04" id="路径"></path>
                                <path d="M54.24,17.184 L53.136,17.184 L53.136,15.048 L53.568,15.048 C53.736,15.048 53.952,14.88 53.976,14.712 L54.072,13.872 L55.368,15.048 L55.392,16.104 C55.368,16.896 54.84,17.184 54.24,17.184" id="路径"></path>
                                <path d="M58.896,11.04 L57.792,11.04 L57.792,8.904 L58.224,8.904 C58.392,8.904 58.536,8.784 58.56,8.616 L58.656,7.776 L60.024,8.904 L60.048,9.96 C60.048,10.752 59.52,11.04 58.896,11.04" id="路径"></path>
                                <path d="M58.824,17.184 L57.72,17.184 L57.72,15.048 L58.152,15.048 C58.32,15.048 58.536,14.88 58.56,14.712 L58.656,13.872 L59.952,15.048 L59.976,16.104 C59.952,16.896 59.424,17.184 58.824,17.184" id="路径"></path>
                                <path d="M1.032,20.304 L1.032,6.168 L7.104,6.168 L7.824,3.96 L7.92,3.624 L7.584,3.624 L0.144,3.624 L0.144,1.032 L19.92,1.032 L19.92,3.576 L11.52,3.576 L10.68,6.144 L11.064,6.144 L18.96,6.144 L18.96,17.904 C18.96,19.392 18.048,20.28 16.512,20.28 L1.032,20.28 L1.032,20.304 Z M15.912,14.28 L4.224,14.28 L4.224,17.832 L14.856,17.832 C15.504,17.832 15.912,17.376 15.912,16.656 L15.912,14.28 L15.912,14.28 Z M15.888,8.568 L4.2,8.568 L4.2,11.904 L15.888,11.904 L15.888,8.568 Z" id="形状"></path>
                                <path d="M27.624,11.088 L27.624,7.2 L25.848,7.2 L25.848,4.968 L27.624,4.968 L27.624,4.248 L30.384,4.248 L30.384,4.968 L36.84,4.968 L36.84,4.248 L39.6,4.248 L39.6,4.968 L41.376,4.968 L41.376,7.2 L39.6,7.2 L39.6,9.816 C39.6,10.536 39.024,11.112 38.304,11.112 L27.624,11.112 L27.624,11.088 Z M30.384,8.856 L36.192,8.856 C36.552,8.856 36.84,8.568 36.84,8.208 L36.84,7.2 L30.384,7.2 L30.384,8.856 L30.384,8.856 Z" id="形状"></path>
                                <path d="M21.432,20.304 C21.768,19.536 22.128,18.144 22.128,15.648 L22.128,1.056 L30.816,1.056 L30.816,-2.27373675e-13 L34.104,-2.27373675e-13 L34.104,1.056 L41.376,1.056 L41.376,3.288 L24.888,3.288 L24.888,15.648 C24.888,17.472 24.72,19.032 24.36,20.304 L21.432,20.304 Z" id="路径"></path>
                                <path d="M38.136,20.304 C37.776,20.304 36.816,20.304 33.6,18.792 L33.576,18.768 L33.504,18.768 L33.48,18.768 C30.24,20.304 29.28,20.304 28.92,20.304 L25.68,20.304 L25.68,18.096 L28.608,18.096 C28.992,18.096 29.688,17.904 30.672,17.544 L30.936,17.448 L30.696,17.328 C28.896,16.368 26.784,15.168 26.4,14.952 L26.4,12.408 L40.68,12.408 L40.68,14.952 C40.296,15.168 38.184,16.368 36.384,17.328 L36.144,17.448 L36.408,17.544 C37.392,17.904 38.088,18.096 38.472,18.096 L41.4,18.096 L41.4,20.304 L38.136,20.304 L38.136,20.304 Z M30,14.616 C30.312,14.784 33.312,16.248 33.552,16.272 C33.792,16.2 36.432,14.952 37.056,14.616 L37.008,14.376 L30.072,14.376 L30,14.616 Z" id="形状"></path>
                            </g>
                            <g>
                                <path d="M45.672,14.712 L47.088,14.712 L47.088,13.56 L45.672,13.56 L45.672,14.712 Z M45.672,17.784 L47.088,17.784 L47.088,16.632 L45.672,16.632 L45.672,17.784 Z M53.304,11.04 L51.984,11.04 C51.48,11.04 51,10.68 50.808,10.152 L50.472,8.808 L49.584,8.808 L49.584,11.472 L53.208,11.472 L53.208,17.664 C53.16,19.272 52.512,20.112 51.336,20.16 L43.392,20.16 L43.392,11.472 L47.088,11.472 L47.088,8.808 L46.272,8.808 L45.84,9.984 C45.6,10.56 45.24,11.04 44.736,11.04 L43.272,11.04 L43.272,8.904 L43.872,8.904 C44.16,8.904 44.304,8.784 44.472,8.328 L44.736,7.656 L47.088,7.656 L47.088,7.152 L43.368,7.152 L43.368,5.256 L44.064,5.256 L44.064,4.44 L46.152,4.44 L46.152,5.256 L47.088,5.256 L47.088,3.48 L43.392,3.48 L43.392,1.2 L50.016,1.2 C50.304,1.2 50.52,1.128 50.52,0.864 L50.52,0.648 L53.016,0.672 L53.04,2.184 C53.04,3.384 52.032,3.432 51.12,3.504 L49.584,3.504 L49.584,5.28 L50.616,5.28 L50.616,4.392 L52.704,4.392 L52.704,5.28 L53.376,5.28 L53.376,7.272 L49.584,7.272 L49.584,7.704 L51.912,7.704 L52.128,8.64 C52.176,8.88 52.32,8.976 52.416,8.976 L53.328,8.976 M49.584,14.712 L50.928,14.712 L50.928,13.56 L49.584,13.56 L49.584,14.712 Z M49.584,16.632 L49.584,17.784 L50.616,17.784 C50.832,17.784 50.952,17.544 50.952,17.256 L50.952,16.632 L49.584,16.632 Z M57.864,17.736 C57.816,19.176 57.432,20.088 56.136,20.16 L53.712,20.16 L53.712,17.592 L54.864,17.592 C55.32,17.592 55.848,17.328 55.848,16.896 L55.848,12.96 L55.368,16.392 L53.784,16.824 L54.312,11.424 L55.872,11.424 L55.872,6 L55.44,9.816 L55.392,10.2 C55.392,10.2 54.312,10.632 53.784,10.632 L54.312,4.224 L55.752,4.224 L55.752,3.24 L53.784,3.24 L53.784,0.888 L57.888,0.888 L57.888,17.736 L57.864,17.736 Z M58.272,16.8 L58.896,11.448 L60.456,11.448 L60.504,6 L60.096,9.624 L60,10.224 L58.368,10.608 C58.464,9.624 58.92,4.2 58.92,4.2 L60.48,4.2 L60.48,3.216 L58.8,3.216 L58.8,0.864 L62.784,0.864 L62.784,17.544 C62.784,19.2 62.112,20.136 60.576,20.136 L58.536,20.136 L58.536,17.592 L59.568,17.592 C59.976,17.592 60.384,17.256 60.384,16.848 L60.384,13.032 L60,15.936 L59.904,16.44 L58.272,16.8 Z" id="形状"></path>
                                <path d="M66.864,9.312 L65.328,9.312 L65.328,7.152 L69.384,7.152 L69.384,17.184 C69.336,17.64 69.528,17.856 69.984,17.784 L71.16,17.784 L71.16,20.208 L68.256,20.208 C67.344,20.208 66.888,19.728 66.888,18.744 L66.888,9.312 L66.864,9.312 Z M65.496,0.672 L70.344,0.672 L70.344,3.192 L65.496,3.192 L65.496,0.672 Z M71.76,12.384 L76.824,12.384 L76.824,11.184 L79.344,11.184 L79.344,12.384 L84.528,12.384 L84.528,14.712 L79.344,14.712 L79.344,16.608 L84.528,16.608 L84.528,18.768 L79.344,18.768 L79.344,20.328 L76.8,20.328 L76.8,18.768 L71.664,18.768 L71.664,16.608 L76.8,16.608 L76.8,14.712 L71.76,14.712 L71.76,12.384 Z M71.76,3.072 L71.76,0.672 L84.504,0.672 L84.504,3.264 L80.472,7.344 L81.576,8.112 C81.864,8.4 82.368,8.544 83.112,8.544 L84.576,8.544 L84.576,10.872 L81.672,10.872 C80.976,10.872 80.352,10.68 79.8,10.272 L78.432,9.24 L77.4,10.008 C76.704,10.584 76.032,10.872 75.336,10.872 L71.832,10.872 L71.832,8.544 L74.232,8.544 C74.568,8.544 74.976,8.4 75.312,8.112 L76.104,7.512 L72.168,4.152 L76.08,4.152 L78.048,5.808 L80.808,3.072 L71.76,3.072 Z" id="形状"></path>
                                <path d="M54.24,11.04 L53.136,11.04 L53.136,8.904 L53.568,8.904 C53.736,8.904 53.88,8.784 53.904,8.616 L54,7.776 L55.368,8.904 L55.392,9.96 C55.368,10.752 54.84,11.04 54.24,11.04" id="路径"></path>
                                <path d="M54.24,17.184 L53.136,17.184 L53.136,15.048 L53.568,15.048 C53.736,15.048 53.952,14.88 53.976,14.712 L54.072,13.872 L55.368,15.048 L55.392,16.104 C55.368,16.896 54.84,17.184 54.24,17.184" id="路径"></path>
                                <path d="M58.896,11.04 L57.792,11.04 L57.792,8.904 L58.224,8.904 C58.392,8.904 58.536,8.784 58.56,8.616 L58.656,7.776 L60.024,8.904 L60.048,9.96 C60.048,10.752 59.52,11.04 58.896,11.04" id="路径"></path>
                                <path d="M58.824,17.184 L57.72,17.184 L57.72,15.048 L58.152,15.048 C58.32,15.048 58.536,14.88 58.56,14.712 L58.656,13.872 L59.952,15.048 L59.976,16.104 C59.952,16.896 59.424,17.184 58.824,17.184" id="路径"></path>
                                <path d="M1.032,20.304 L1.032,6.168 L7.104,6.168 L7.824,3.96 L7.92,3.624 L7.584,3.624 L0.144,3.624 L0.144,1.032 L19.92,1.032 L19.92,3.576 L11.52,3.576 L10.68,6.144 L11.064,6.144 L18.96,6.144 L18.96,17.904 C18.96,19.392 18.048,20.28 16.512,20.28 L1.032,20.28 L1.032,20.304 Z M15.912,14.28 L4.224,14.28 L4.224,17.832 L14.856,17.832 C15.504,17.832 15.912,17.376 15.912,16.656 L15.912,14.28 L15.912,14.28 Z M15.888,8.568 L4.2,8.568 L4.2,11.904 L15.888,11.904 L15.888,8.568 Z" id="形状"></path>
                                <path d="M27.624,11.088 L27.624,7.2 L25.848,7.2 L25.848,4.968 L27.624,4.968 L27.624,4.248 L30.384,4.248 L30.384,4.968 L36.84,4.968 L36.84,4.248 L39.6,4.248 L39.6,4.968 L41.376,4.968 L41.376,7.2 L39.6,7.2 L39.6,9.816 C39.6,10.536 39.024,11.112 38.304,11.112 L27.624,11.112 L27.624,11.088 Z M30.384,8.856 L36.192,8.856 C36.552,8.856 36.84,8.568 36.84,8.208 L36.84,7.2 L30.384,7.2 L30.384,8.856 L30.384,8.856 Z" id="形状"></path>
                                <path d="M21.432,20.304 C21.768,19.536 22.128,18.144 22.128,15.648 L22.128,1.056 L30.816,1.056 L30.816,-2.27373675e-13 L34.104,-2.27373675e-13 L34.104,1.056 L41.376,1.056 L41.376,3.288 L24.888,3.288 L24.888,15.648 C24.888,17.472 24.72,19.032 24.36,20.304 L21.432,20.304 Z" id="路径"></path>
                                <path d="M38.136,20.304 C37.776,20.304 36.816,20.304 33.6,18.792 L33.576,18.768 L33.504,18.768 L33.48,18.768 C30.24,20.304 29.28,20.304 28.92,20.304 L25.68,20.304 L25.68,18.096 L28.608,18.096 C28.992,18.096 29.688,17.904 30.672,17.544 L30.936,17.448 L30.696,17.328 C28.896,16.368 26.784,15.168 26.4,14.952 L26.4,12.408 L40.68,12.408 L40.68,14.952 C40.296,15.168 38.184,16.368 36.384,17.328 L36.144,17.448 L36.408,17.544 C37.392,17.904 38.088,18.096 38.472,18.096 L41.4,18.096 L41.4,20.304 L38.136,20.304 L38.136,20.304 Z M30,14.616 C30.312,14.784 33.312,16.248 33.552,16.272 C33.792,16.2 36.432,14.952 37.056,14.616 L37.008,14.376 L30.072,14.376 L30,14.616 Z" id="形状"></path>
                            </g>
                        </g>
                    </g>
                </g>
            </g>
        </g>
    </g>
</svg>